{
  "accessors": [
    {
      "bufferView": 3,
      "componentType": 5126,
      "count": 16,
      "max": [
        0.502853512763977,
        0.6361808180809021,
        6.82605048041296e-08
      ],
      "min": [
        -1.0221139192581177,
        -1.3772722482681274,
        -3.3826172085582584e-08
      ],
      "type": "VEC3"
    },
    {
      "bufferView": 3,
      "byteOffset": 192,
      "componentType": 5126,
      "count": 16,
      "max": [
        5.5675894117257485e-08,
        5.914407452678461e-08,
        1.0
      ],
      "min": [
        3.5674709408795025e-08,
        -1.3909871476869284e-08,
        1.0
      ],
      "type": "VEC3"
    },
    {
      "bufferView": 2,
      "componentType": 5126,
      "count": 16,
      "max": [
        0.13818424940109253,
        0.8876070976257324
      ],
      "min": [
        0.04971678555011749,
        0.8323439359664917
      ],
      "type": "VEC2"
    },
    {
      "bufferView": 1,
      "componentType": 5125,
      "count": 30,
      "type": "SCALAR"
    },
    {
      "bufferView": 3,
      "byteOffset": 384,
      "componentType": 5126,
      "count": 16,
      "max": [
        1.4360322952270508,
        0.48943066596984863,
        1.7270713215111755e-07
      ],
      "min": [
        -0.5659232139587402,
        -1.291882038116455,
        -5.362826982491242e-08
      ],
      "type": "VEC3"
    },
    {
      "bufferView": 3,
      "byteOffset": 576,
      "componentType": 5126,
      "count": 16,
      "max": [
        -8.777347915156497e-08,
        -2.8142126851093963e-08,
        1.0
      ],
      "min": [
        -1.5358719451796787e-07,
        -6.550294529006351e-08,
        1.0
      ],
      "type": "VEC3"
    },
    {
      "bufferView": 2,
      "byteOffset": 128,
      "componentType": 5126,
      "count": 16,
      "max": [
        0.13818424940109253,
        0.8876070976257324
      ],
      "min": [
        0.04971678555011749,
        0.8323439359664917
      ],
      "type": "VEC2"
    },
    {
      "bufferView": 1,
      "byteOffset": 120,
      "componentType": 5125,
      "count": 30,
      "type": "SCALAR"
    },
    {
      "bufferView": 3,
      "byteOffset": 768,
      "componentType": 5126,
      "count": 124,
      "max": [
        1.0,
        0.8010005354881287,
        1.0
      ],
      "min": [
        -1.0,
        -0.8010005354881287,
        -1.0
      ],
      "type": "VEC3"
    },
    {
      "bufferView": 3,
      "byteOffset": 2256,
      "componentType": 5126,
      "count": 124,
      "max": [
        0.7217166423797607,
        0.7071067690849304,
        0.7217166423797607
      ],
      "min": [
        -0.7217166423797607,
        -0.7071067690849304,
        -0.9969192743301392
      ],
      "type": "VEC3"
    },
    {
      "bufferView": 2,
      "byteOffset": 256,
      "componentType": 5126,
      "count": 124,
      "max": [
        0.832309365272522,
        0.9309099912643433
      ],
      "min": [
        0.3025714159011841,
        0.711538553237915
      ],
      "type": "VEC2"
    },
    {
      "bufferView": 1,
      "byteOffset": 240,
      "componentType": 5125,
      "count": 294,
      "type": "SCALAR"
    },
    {
      "bufferView": 3,
      "byteOffset": 3744,
      "componentType": 5126,
      "count": 164,
      "max": [
        1.8485667705535889,
        3.422945499420166,
        0.38354215025901794
      ],
      "min": [
        -1.848567247390747,
        -0.06064140796661377,
        -0.38354215025901794
      ],
      "type": "VEC3"
    },
    {
      "bufferView": 3,
      "byteOffset": 5712,
      "componentType": 5126,
      "count": 164,
      "max": [
        0.9424095749855042,
        0.7071068286895752,
        1.0
      ],
      "min": [
        -0.9424095749855042,
        -0.7526574730873108,
        -1.0
      ],
      "type": "VEC3"
    },
    {
      "bufferView": 2,
      "byteOffset": 1248,
      "componentType": 5126,
      "count": 164,
      "max": [
        0.7866873145103455,
        0.7028027772903442
      ],
      "min": [
        0.0,
        0.2946617901325226
      ],
      "type": "VEC2"
    },
    {
      "bufferView": 1,
      "byteOffset": 1416,
      "componentType": 5125,
      "count": 408,
      "type": "SCALAR"
    },
    {
      "bufferView": 5,
      "componentType": 5126,
      "count": 20,
      "max": [
        100.0,
        0.7511687278747559,
        3.882561259160866e-07,
        0.0,
        0.7511687278747559,
        100.0,
        5.535366653930396e-08,
        0.0,
        3.8941081470511563e-07,
        2.3429117668302343e-15,
        100.0,
        0.0,
        2.6830406188964844,
        1.3566770553588867,
        2.487473693690845e-07,
        1.0
      ],
      "min": [
        -0.755488932132721,
        -0.7511687278747559,
        -3.882561259160866e-07,
        0.0,
        -0.7511687278747559,
        -0.9991951584815979,
        -7.529889245461163e-08,
        0.0,
        -3.8941081470511563e-07,
        -1.0150655782581453e-07,
        -1.0,
        0.0,
        -2.6830406188964844,
        -2.399669647216797,
        -2.811510455558164e-07,
        1.0
      ],
      "type": "MAT4"
    },
    {
      "bufferView": 0,
      "componentType": 5123,
      "count": 164,
      "type": "VEC4"
    },
    {
      "bufferView": 4,
      "componentType": 5126,
      "count": 164,
      "max": [
        1.0,
        0.4499813914299011,
        0.1729271411895752,
        0.04405239224433899
      ],
      "min": [
        0.4818349778652191,
        0.0,
        0.0,
        0.0
      ],
      "type": "VEC4"
    }
  ],
  "asset": {
    "extras": {
      "author": "mohd.akmal.mahyudin (https://sketchfab.com/mohd.akmal.mahyudin)",
      "license": "CC-BY-4.0 (http://creativecommons.org/licenses/by/4.0/)",
      "source": "https://sketchfab.com/3d-models/el-gato-e2474248e97b49f9a2a753ff1b626cd6",
      "title": "El Gato"
    },
    "generator": "Sketchfab-13.50.0",
    "version": "2.0"
  },
  "bufferViews": [
    {
      "buffer": 0,
      "byteLength": 1312,
      "byteStride": 8,
      "name": "shortBufferViews",
      "target": 34962
    },
    {
      "buffer": 0,
      "byteLength": 3048,
      "byteOffset": 1312,
      "name": "floatBufferViews",
      "target": 34963
    },
    {
      "buffer": 0,
      "byteLength": 2560,
      "byteOffset": 4360,
      "byteStride": 8,
      "name": "floatBufferViews",
      "target": 34962
    },
    {
      "buffer": 0,
      "byteLength": 7680,
      "byteOffset": 6920,
      "byteStride": 12,
      "name": "floatBufferViews",
      "target": 34962
    },
    {
      "buffer": 0,
      "byteLength": 2624,
      "byteOffset": 14600,
      "byteStride": 16,
      "name": "floatBufferViews",
      "target": 34962
    },
    {
      "buffer": 0,
      "byteLength": 1280,
      "byteOffset": 17224,
      "name": "floatBufferViews"
    }
  ],
  "buffers": [
    {
      "byteLength": 18504,
      "uri": "gltf.bin"
    }
  ],
  "images": [
    {
      "uri": "textures/Material.001_baseColor.png"
    }
  ],
  "materials": [
    {
      "doubleSided": true,
      "name": "Material.001",
      "pbrMetallicRoughness": {
        "baseColorTexture": {
          "index": 0
        },
        "metallicFactor": 0.0,
        "roughnessFactor": 0.8618603089267143
      }
    }
  ],
  "meshes": [
    {
      "name": "ear.l_Material.001_0",
      "primitives": [
        {
          "attributes": {
            "NORMAL": 1,
            "POSITION": 0,
            "TEXCOORD_0": 2
          },
          "indices": 3,
          "material": 0,
          "mode": 4
        }
      ]
    },
    {
      "name": "ear.r_Material.001_0",
      "primitives": [
        {
          "attributes": {
            "NORMAL": 5,
            "POSITION": 4,
            "TEXCOORD_0": 6
          },
          "indices": 7,
          "material": 0,
          "mode": 4
        }
      ]
    },
    {
      "name": "head_Material.001_0",
      "primitives": [
        {
          "attributes": {
            "NORMAL": 9,
            "POSITION": 8,
            "TEXCOORD_0": 10
          },
          "indices": 11,
          "material": 0,
          "mode": 4
        }
      ]
    },
    {
      "name": "Body_Material.001_0",
      "primitives": [
        {
          "attributes": {
            "JOINTS_0": 17,
            "NORMAL": 13,
            "POSITION": 12,
            "TEXCOORD_0": 14,
            "WEIGHTS_0": 18
          },
          "indices": 15,
          "material": 0,
          "mode": 4
        }
      ]
    }
  ],
  "nodes": [
    {
      "children": [
        1
      ],
      "matrix": [
        1.0,
        0.0,
        0.0,
        0.0,
        0.0,
        2.220446049250313e-16,
        -1.0,
        0.0,
        0.0,
        1.0,
        2.220446049250313e-16,
        0.0,
        0.0,
        0.0,
        0.0,
        1.0
      ],
      "name": "Sketchfab_model"
    },
    {
      "children": [
        2
      ],
      "matrix": [
        0.009999999776482582,
        0.0,
        0.0,
        0.0,
        0.0,
        0.0,
        0.009999999776482582,
        0.0,
        0.0,
        -0.009999999776482582,
        0.0,
        0.0,
        0.0,
        0.0,
        0.0,
        1.0
      ],
      "name": "0c8bf87ca9a14117a91418e9160f86b5.fbx"
    },
    {
      "children": [
        3
      ],
      "name": "RootNode"
    },
    {
      "children": [
        4
      ],
      "matrix": [
        100.0,
        0.0,
        0.0,
        0.0,
        0.0,
        -1.629206793918314e-05,
        -99.99999999999868,
        0.0,
        0.0,
        99.99999999999868,
        -1.629206793918314e-05,
        0.0,
        0.0,
        0.0,
        0.0,
        1.0
      ],
      "name": "El Gato Skeleton"
    },
    {
      "children": [
        5,
        32,
        31
      ],
      "name": "Object_4"
    },
    {
      "children": [
        6
      ],
      "name": "_rootJoint"
    },
    {
      "children": [
        7,
        25,
        28
      ],
      "name": "Bone_00",
      "rotation": [
        0.7071068286895752,
        0.0,
        0.0,
        0.7071067094802856
      ],
      "translation": [
        0.0,
        0.0,
        1.3779122829437256
      ]
    },
    {
      "children": [
        8,
        19,
        22
      ],
      "name": "chest_01",
      "translation": [
        0.0,
        1.0217573642730713,
        0.0
      ]
    },
    {
      "children": [
        9,
        13,
        17
      ],
      "name": "head_02",
      "translation": [
        0.0,
        1.0217576026916504,
        0.0
      ]
    },
    {
      "children": [
        10,
        11
      ],
      "name": "ear.l_03",
      "rotation": [
        4.3033942631609534e-08,
        -1.58263055993757e-08,
        -0.3143887221813202,
        0.9492944478988647
      ],
      "scale": [
        1.0,
        0.9999999403953552,
        1.0
      ],
      "translation": [
        0.7330188751220703,
        1.666269302368164,
        0.0
      ]
    },
    {
      "name": "ear.l_end_013",
      "rotation": [
        -6.617444900424222e-24,
        2.0679515313825692e-24,
        -2.95609105374157e-17,
        1.0
      ],
      "translation": [
        -4.440892098500626e-16,
        0.979897677898407,
        0.0
      ]
    },
    {
      "children": [
        12
      ],
      "matrix": [
        0.5272626621666444,
        0.1315220107549698,
        -4.173812079633732e-08,
        0.0,
        -0.13152203960683873,
        0.5272627778317838,
        -3.5903566543697984e-08,
        0.0,
        3.180759933714884e-08,
        4.4937885374705e-08,
        0.5434188246726962,
        0.0,
        -0.004775106906890869,
        0.6685047745704651,
        6.714497544635378e-07,
        1.0
      ],
      "name": "ear.l"
    },
    {
      "mesh": 0,
      "name": "ear.l_Material.001_0"
    },
    {
      "children": [
        14,
        15
      ],
      "name": "ear.r_04",
      "rotation": [
        4.3033942631609534e-08,
        1.58263055993757e-08,
        0.3143887221813202,
        0.9492944478988647
      ],
      "scale": [
        1.0,
        0.9999999403953552,
        1.0
      ],
      "translation": [
        -0.7330188751220703,
        1.666269302368164,
        0.0
      ]
    },
    {
      "name": "ear.r_end_014",
      "rotation": [
        -6.617444900424222e-24,
        -2.0679515313825692e-24,
        2.95609105374157e-17,
        1.0
      ],
      "translation": [
        4.440892098500626e-16,
        0.979897677898407,
        0.0
      ]
    },
    {
      "children": [
        16
      ],
      "matrix": [
        0.27752466318399266,
        -0.46720881876658615,
        1.554393906052521e-08,
        0.0,
        0.46720881876658643,
        0.27752466318399244,
        -1.2010503018572706e-08,
        0.0,
        2.387820253662808e-09,
        1.9497808561801582e-08,
        0.5434188246726986,
        0.0,
        0.004775047302246094,
        0.6685054898262024,
        6.714498113069567e-07,
        1.0
      ],
      "name": "ear.r"
    },
    {
      "mesh": 1,
      "name": "ear.r_Material.001_0"
    },
    {
      "children": [
        18
      ],
      "matrix": [
        1.0,
        0.0,
        0.0,
        0.0,
        0.0,
        -1.6292067939183141e-07,
        -0.9999999999999868,
        0.0,
        0.0,
        0.9999999999999868,
        -1.6292067939183141e-07,
        0.0,
        0.0,
        0.8368501663208008,
        0.0,
        1.0
      ],
      "name": "head"
    },
    {
      "mesh": 2,
      "name": "head_Material.001_0"
    },
    {
      "children": [
        20
      ],
      "name": "bicep.l_05",
      "rotation": [
        8.121888050993675e-09,
        -4.499927186429886e-08,
        0.911073625087738,
        -0.41224369406700134
      ],
      "translation": [
        0.7520090937614441,
        0.5113029479980469,
        -6.858408596599475e-08
      ]
    },
    {
      "children": [
        21
      ],
      "name": "forearm.l_06",
      "rotation": [
        -1.245684089212773e-08,
        -1.052291906944447e-07,
        -0.06766553223133087,
        0.9977080821990967
      ],
      "scale": [
        0.9999999403953552,
        0.9999999403953552,
        1.0
      ],
      "translation": [
        1.7881393432617188e-07,
        0.6161487698554993,
        7.105427357601002e-15
      ]
    },
    {
      "name": "forearm.l_end_015",
      "rotation": [
        -1.9852334701272664e-23,
        1.3234889800848443e-23,
        -7.023682563671874e-17,
        1.0
      ],
      "translation": [
        -4.440892098500626e-16,
        0.6500784158706665,
        5.293955920339377e-23
      ]
    },
    {
      "children": [
        23
      ],
      "name": "bicep.r_07",
      "rotation": [
        -8.121888050993675e-09,
        -4.499927186429886e-08,
        0.911073625087738,
        0.41224369406700134
      ],
      "translation": [
        -0.7520090937614441,
        0.5113029479980469,
        -6.858408596599475e-08
      ]
    },
    {
      "children": [
        24
      ],
      "name": "forearm.r_08",
      "rotation": [
        -1.245684089212773e-08,
        1.052291906944447e-07,
        0.06766553223133087,
        0.9977080821990967
      ],
      "scale": [
        0.9999999403953552,
        0.9999999403953552,
        1.0
      ],
      "translation": [
        -1.7881393432617188e-07,
        0.6161487698554993,
        7.105427357601002e-15
      ]
    },
    {
      "name": "forearm.r_end_016",
      "rotation": [
        -1.9852334701272664e-23,
        -1.3234889800848443e-23,
        7.023682563671874e-17,
        1.0
      ],
      "translation": [
        4.440892098500626e-16,
        0.6500784158706665,
        5.293955920339377e-23
      ]
    },
    {
      "children": [
        26
      ],
      "name": "thigh.l_09",
      "rotation": [
        0.9992561936378479,
        0.038562338799238205,
        1.9287671193524147e-07,
        -5.1187239336059065e-08
      ],
      "scale": [
        1.0000088214874268,
        0.9999995827674866,
        1.0
      ],
      "translation": [
        0.5496501922607422,
        -0.025158166885375977,
        0.0
      ]
    },
    {
      "children": [
        27
      ],
      "name": "calf.l_010",
      "rotation": [
        -6.097145455186137e-09,
        -5.991184082176915e-08,
        0.018504472449421883,
        0.9998288750648499
      ],
      "scale": [
        0.9999999403953552,
        0.9999998807907104,
        1.0
      ],
      "translation": [
        1.1175870895385742e-08,
        0.6209551692008972,
        3.552713678800501e-15
      ]
    },
    {
      "name": "calf.l_end_017",
      "rotation": [
        -6.617444900424222e-24,
        5.293955920339377e-23,
        2.492607032713205e-18,
        1.0
      ],
      "translation": [
        1.1102230246251565e-16,
        0.7838142514228821,
        -1.0587911840678754e-22
      ]
    },
    {
      "children": [
        29
      ],
      "name": "thigh.r_011",
      "rotation": [
        0.9992561936378479,
        -0.038562338799238205,
        -1.9287671193524147e-07,
        -5.1187239336059065e-08
      ],
      "scale": [
        1.0000088214874268,
        0.9999995827674866,
        1.0
      ],
      "translation": [
        -0.5496501922607422,
        -0.025158166885375977,
        0.0
      ]
    },
    {
      "children": [
        30
      ],
      "name": "calf.r_012",
      "rotation": [
        -6.097145455186137e-09,
        5.991184082176915e-08,
        -0.018504472449421883,
        0.9998288750648499
      ],
      "scale": [
        0.9999999403953552,
        0.9999998807907104,
        1.0
      ],
      "translation": [
        -1.1175870895385742e-08,
        0.6209551692008972,
        3.552713678800501e-15
      ]
    },
    {
      "name": "calf.r_end_018",
      "rotation": [
        -6.617444900424222e-24,
        -5.293955920339377e-23,
        -2.492607032713205e-18,
        1.0
      ],
      "translation": [
        -1.1102230246251565e-16,
        0.7838142514228821,
        -1.0587911840678754e-22
      ]
    },
    {
      "matrix": [
        100.0,
        0.0,
        0.0,
        0.0,
        0.0,
        6.123233995736766e-15,
        -100.0,
        0.0,
        0.0,
        100.0,
        6.123233995736766e-15,
        0.0,
        0.0,
        133.62876272201538,
        0.0,
        1.0
      ],
      "name": "Object_31"
    },
    {
      "mesh": 3,
      "name": "Object_32",
      "skin": 0
    }
  ],
  "samplers": [
    {
      "magFilter": 9729,
      "minFilter": 9987,
      "wrapS": 10497,
      "wrapT": 10497
    }
  ],
  "scene": 0,
  "scenes": [
    {
      "name": "Sketchfab_Scene",
      "nodes": [
        0
      ]
    }
  ],
  "skins": [
    {
      "inverseBindMatrices": 16,
      "joints": [
        5,
        6,
        7,
        8,
        9,
        10,
        13,
        14,
        19,
        20,
        21,
        22,
        23,
        24,
        25,
        26,
        27,
        28,
        29,
        30
      ],
      "skeleton": 5
    }
  ],
  "textures": [
    {
      "sampler": 0,
      "source": 0
    }
  ]
}
