{
  "accessors": [
    {
      "bufferView": 2,
      "componentType": 5126,
      "count": 345,
      "max": [
        12.520514488220215,
        18.447092056274414,
        7.690371513366699
      ],
      "min": [
        -17.29825782775879,
        -0.7670459747314453,
        -8.803175926208496
      ],
      "type": "VEC3"
    },
    {
      "bufferView": 2,
      "byteOffset": 4140,
      "componentType": 5126,
      "count": 345,
      "max": [
        0.9957754015922546,
        0.9970887899398804,
        0.9958207011222839
      ],
      "min": [
        -0.9925261735916138,
        -0.9994326233863831,
        -0.9937598705291748
      ],
      "type": "VEC3"
    },
    {
      "bufferView": 1,
      "componentType": 5126,
      "count": 345,
      "max": [
        0.9607477188110352,
        0.9127410650253296
      ],
      "min": [
        0.023129016160964966,
        0.07525019347667694
      ],
      "type": "VEC2"
    },
    {
      "bufferView": 0,
      "componentType": 5125,
      "count": 1776,
      "type": "SCALAR"
    },
    {
      "bufferView": 2,
      "byteOffset": 8280,
      "componentType": 5126,
      "count": 18,
      "max": [
        15.933141708374023,
        12.787069320678711,
        9.942054748535156
      ],
      "min": [
        2.8553152084350586,
        6.7361040115356445,
        -0.4937455952167511
      ],
      "type": "VEC3"
    },
    {
      "bufferView": 2,
      "byteOffset": 8496,
      "componentType": 5126,
      "count": 18,
      "max": [
        0.792226254940033,
        0.6791959404945374,
        0.9086200594902039
      ],
      "min": [
        -0.025461506098508835,
        -0.39776611328125,
        0.2576817274093628
      ],
      "type": "VEC3"
    },
    {
      "bufferView": 1,
      "byteOffset": 2760,
      "componentType": 5126,
      "count": 18,
      "max": [
        0.5125184059143066,
        0.7462789416313171
      ],
      "min": [
        0.022946864366531372,
        -0.04838833212852478
      ],
      "type": "VEC2"
    },
    {
      "bufferView": 0,
      "byteOffset": 7104,
      "componentType": 5125,
      "count": 48,
      "type": "SCALAR"
    },
    {
      "bufferView": 3,
      "componentType": 5126,
      "count": 866,
      "max": [
        14.733333587646484
      ],
      "min": [
        0.01666666753590107
      ],
      "type": "SCALAR"
    },
    {
      "bufferView": 4,
      "componentType": 5126,
      "count": 866,
      "max": [
        0.0,
        6.289999961853027,
        6.909999847412109
      ],
      "min": [
        0.0,
        0.0,
        -6.909999847412109
      ],
      "type": "VEC3"
    },
    {
      "bufferView": 3,
      "byteOffset": 3464,
      "componentType": 5126,
      "count": 866,
      "max": [
        14.733333587646484
      ],
      "min": [
        0.01666666753590107
      ],
      "type": "SCALAR"
    },
    {
      "bufferView": 5,
      "componentType": 5126,
      "count": 866,
      "max": [
        0.22920039296150208,
        0.0,
        -0.0,
        1.0
      ],
      "min": [
        -0.22920037806034088,
        0.0,
        -0.0,
        0.9733792543411255
      ],
      "type": "VEC4"
    },
    {
      "bufferView": 3,
      "byteOffset": 6928,
      "componentType": 5126,
      "count": 865,
      "max": [
        14.416666984558105
      ],
      "min": [
        0.01666666753590107
      ],
      "type": "SCALAR"
    },
    {
      "bufferView": 4,
      "byteOffset": 10392,
      "componentType": 5126,
      "count": 865,
      "max": [
        0.0,
        6.289999961853027,
        6.909999847412109
      ],
      "min": [
        0.0,
        0.0,
        -6.909999847412109
      ],
      "type": "VEC3"
    },
    {
      "bufferView": 3,
      "byteOffset": 10388,
      "componentType": 5126,
      "count": 865,
      "max": [
        14.416666984558105
      ],
      "min": [
        0.01666666753590107
      ],
      "type": "SCALAR"
    },
    {
      "bufferView": 5,
      "byteOffset": 13856,
      "componentType": 5126,
      "count": 865,
      "max": [
        0.22920037806034088,
        0.0,
        -0.0,
        1.0
      ],
      "min": [
        -0.22920042276382446,
        0.0,
        -0.0,
        0.9733792543411255
      ],
      "type": "VEC4"
    }
  ],
  "animations": [
    {
      "channels": [
        {
          "sampler": 0,
          "target": {
            "node": 3,
            "path": "translation"
          }
        },
        {
          "sampler": 1,
          "target": {
            "node": 3,
            "path": "rotation"
          }
        }
      ],
      "name": "Action",
      "samplers": [
        {
          "input": 8,
          "interpolation": "LINEAR",
          "output": 9
        },
        {
          "input": 10,
          "interpolation": "LINEAR",
          "output": 11
        }
      ]
    },
    {
      "channels": [
        {
          "sampler": 0,
          "target": {
            "node": 3,
            "path": "translation"
          }
        },
        {
          "sampler": 1,
          "target": {
            "node": 3,
            "path": "rotation"
          }
        }
      ],
      "name": "dingusAction",
      "samplers": [
        {
          "input": 12,
          "interpolation": "LINEAR",
          "output": 13
        },
        {
          "input": 14,
          "interpolation": "LINEAR",
          "output": 15
        }
      ]
    }
  ],
  "asset": {
    "extras": {
      "author": "sashanedurak (https://sketchfab.com/sashanedurak)",
      "license": "CC-BY-4.0 (http://creativecommons.org/licenses/by/4.0/)",
      "source": "https://sketchfab.com/3d-models/maxwell-dance-801b4ae7347a40fc849d395a38b01776",
      "title": "Maxwell Dance"
    },
    "generator": "Sketchfab-14.66.0",
    "version": "2.0"
  },
  "bufferViews": [
    {
      "buffer": 0,
      "byteLength": 7296,
      "name": "floatBufferViews",
      "target": 34963
    },
    {
      "buffer": 0,
      "byteLength": 2904,
      "byteOffset": 7296,
      "byteStride": 8,
      "name": "floatBufferViews",
      "target": 34962
    },
    {
      "buffer": 0,
      "byteLength": 8712,
      "byteOffset": 10200,
      "byteStride": 12,
      "name": "floatBufferViews",
      "target": 34962
    },
    {
      "buffer": 0,
      "byteLength": 13848,
      "byteOffset": 18912,
      "name": "floatBufferViews"
    },
    {
      "buffer": 0,
      "byteLength": 20772,
      "byteOffset": 32760,
      "byteStride": 12,
      "name": "floatBufferViews"
    },
    {
      "buffer": 0,
      "byteLength": 27696,
      "byteOffset": 53532,
      "byteStride": 16,
      "name": "floatBufferViews"
    }
  ],
  "buffers": [
    {
      "byteLength": 81228,
      "uri": "scene.bin"
    }
  ],
  "images": [
    {
      "uri": "textures/dingus_baseColor.jpeg"
    },
    {
      "uri": "textures/whiskers_baseColor.png"
    }
  ],
  "materials": [
    {
      "doubleSided": true,
      "name": "dingus",
      "pbrMetallicRoughness": {
        "baseColorTexture": {
          "index": 0
        },
        "metallicFactor": 0.0,
        "roughnessFactor": 0.5
      }
    },
    {
      "alphaMode": "MASK",
      "doubleSided": true,
      "name": "whiskers",
      "pbrMetallicRoughness": {
        "baseColorTexture": {
          "index": 1
        },
        "metallicFactor": 0.0,
        "roughnessFactor": 0.5
      }
    }
  ],
  "meshes": [
    {
      "name": "Object_0",
      "primitives": [
        {
          "attributes": {
            "NORMAL": 1,
            "POSITION": 0,
            "TEXCOORD_0": 2
          },
          "indices": 3,
          "material": 0,
          "mode": 4
        }
      ]
    },
    {
      "name": "Object_1",
      "primitives": [
        {
          "attributes": {
            "NORMAL": 5,
            "POSITION": 4,
            "TEXCOORD_0": 6
          },
          "indices": 7,
          "material": 1,
          "mode": 4
        }
      ]
    }
  ],
  "nodes": [
    {
      "children": [
        1
      ],
      "matrix": [
        1.0,
        0.0,
        0.0,
        0.0,
        0.0,
        2.220446049250313e-16,
        -1.0,
        0.0,
        0.0,
        1.0,
        2.220446049250313e-16,
        0.0,
        0.0,
        0.0,
        0.0,
        1.0
      ],
      "name": "Sketchfab_model"
    },
    {
      "children": [
        2
      ],
      "name": "root"
    },
    {
      "children": [
        3
      ],
      "matrix": [
        1.0,
        0.0,
        0.0,
        0.0,
        0.0,
        2.220446049250313e-16,
        1.0,
        0.0,
        0.0,
        -1.0,
        2.220446049250313e-16,
        0.0,
        0.0,
        0.0,
        0.0,
        1.0
      ],
      "name": "GLTF_SceneRootNode"
    },
    {
      "children": [
        4,
        5
      ],
      "name": "dingus_2"
    },
    {
      "mesh": 0,
      "name": "Object_4"
    },
    {
      "mesh": 1,
      "name": "Object_5"
    }
  ],
  "samplers": [
    {
      "magFilter": 9729,
      "minFilter": 9987,
      "wrapS": 10497,
      "wrapT": 10497
    }
  ],
  "scene": 0,
  "scenes": [
    {
      "name": "Sketchfab_Scene",
      "nodes": [
        0
      ]
    }
  ],
  "textures": [
    {
      "sampler": 0,
      "source": 0
    },
    {
      "sampler": 0,
      "source": 1
    }
  ]
}
